<svg xmlns="http://www.w3.org/2000/svg" width="1000" height="340" viewBox="0 0 1000 340" role="img" aria-labelledby="title desc"><title id="title">StaffingOS — architecture</title><desc id="desc">Original editorial vector diagram. Flat geometry showing software mechanisms, not an interface capture.</desc><defs><linearGradient id="bg" x2="1" y2="1"><stop stop-color="#101b32"/><stop offset=".6" stop-color="#17182e"/><stop offset="1" stop-color="#0b1120"/></linearGradient><radialGradient id="halo"><stop stop-color="#9385f5" stop-opacity=".2"/><stop offset="1" stop-color="#9385f5" stop-opacity="0"/></radialGradient><pattern id="grid" width="30" height="30" patternUnits="userSpaceOnUse"><path d="M30 0H0V30" fill="none" stroke="#7185b6" stroke-opacity=".13"/></pattern></defs><rect width="1000" height="340" rx="16" fill="url(#bg)"/><g font-family="Segoe UI,Arial,sans-serif"><rect x="615" y="12" width="373" height="316" rx="7" fill="url(#grid)" stroke="none"/><circle cx="805" cy="165" r="200" fill="url(#halo)"/><text x="40" y="127" font-size="72" font-weight="700" fill="#f4f7ff" letter-spacing="-2">StaffingOS</text><text x="40" y="207" font-size="50" font-weight="500" fill="#e9b4fa" >Missions &amp;</text><text x="40" y="266" font-size="50" font-weight="500" fill="#e9b4fa" >validation</text><rect x="759" y="79" width="116" height="167" rx="6" fill="#28223a" stroke="#e9b4fa"/><path d="M780 115H853" fill="none" stroke="#e9b4fa" stroke-width="2" /><path d="M780 148H853" fill="none" stroke="#e9b4fa" stroke-width="2" /><path d="M780 181H853" fill="none" stroke="#e9b4fa" stroke-width="2" /><path d="M785 218L799 229L833 205" fill="none" stroke="#e9b4fa" stroke-width="3" /><circle cx="670" cy="75" r="24" fill="#28223a" stroke="#e9b4fa" stroke-width="2" /><path d="M642 114Q670 80 698 114" fill="none" stroke="#e9b4fa" stroke-width="2" /><circle cx="927" cy="70" r="24" fill="#28223a" stroke="#e9b4fa" stroke-width="2" /><path d="M899 109Q927 75 955 109" fill="none" stroke="#e9b4fa" stroke-width="2" /><circle cx="925" cy="258" r="24" fill="#28223a" stroke="#e9b4fa" stroke-width="2" /><path d="M897 297Q925 263 953 297" fill="none" stroke="#e9b4fa" stroke-width="2" /><path d="M694 75L759 111M903 70L875 112M901 258L875 221" fill="none" stroke="#e9b4fa" stroke-width="2" /></g></svg>