<svg xmlns="http://www.w3.org/2000/svg" width="1280" height="620" viewBox="0 0 1280 620" role="img"><title>HectorLayak — workshop map</title><rect width="1280" height="620" rx="18" fill="#101621"/><path d="M640 268L209.0 98" stroke="#b4a0ff" stroke-width="1.4" opacity=".35"/><rect x="34" y="40" width="350" height="114" rx="14" fill="#101621" stroke="#2f3b50"/><circle cx="60" cy="72" r="4" fill="#b4a0ff"/><text x="76" y="80" font-family="Segoe UI,Arial,sans-serif" font-size="21" font-weight="600" fill="#edf2fa">AI &amp; languages</text><text x="56" y="118" font-family="Segoe UI,Arial,sans-serif" font-size="13.5" fill="#aab7cc">AINDEX · HECTOR · Continuum</text><path d="M640 268L1071.0 98" stroke="#c6ffa1" stroke-width="1.4" opacity=".35"/><rect x="896" y="40" width="350" height="114" rx="14" fill="#101621" stroke="#2f3b50"/><circle cx="922" cy="72" r="4" fill="#c6ffa1"/><text x="938" y="80" font-family="Segoe UI,Arial,sans-serif" font-size="21" font-weight="600" fill="#edf2fa">Business software</text><text x="918" y="118" font-family="Segoe UI,Arial,sans-serif" font-size="13.5" fill="#aab7cc">SaleCast · StaffingOS · Vouch</text><path d="M640 268L209.0 342" stroke="#f5c98a" stroke-width="1.4" opacity=".35"/><rect x="34" y="284" width="350" height="114" rx="14" fill="#101621" stroke="#2f3b50"/><circle cx="60" cy="316" r="4" fill="#f5c98a"/><text x="76" y="324" font-family="Segoe UI,Arial,sans-serif" font-size="21" font-weight="600" fill="#edf2fa">Worlds &amp; simulation</text><text x="56" y="362" font-family="Segoe UI,Arial,sans-serif" font-size="13.5" fill="#aab7cc">FantasyOnline · REWORLD · Poisson</text><path d="M640 268L1071.0 342" stroke="#93dfff" stroke-width="1.4" opacity=".35"/><rect x="896" y="284" width="350" height="114" rx="14" fill="#101621" stroke="#2f3b50"/><circle cx="922" cy="316" r="4" fill="#93dfff"/><text x="938" y="324" font-family="Segoe UI,Arial,sans-serif" font-size="21" font-weight="600" fill="#edf2fa">Mobile &amp; collaboration</text><text x="918" y="362" font-family="Segoe UI,Arial,sans-serif" font-size="13.5" fill="#aab7cc">RoadTripper · MyRoadTrip · PartyFlow</text><path d="M640 268L640.0 480" stroke="#88e0d0" stroke-width="1.4" opacity=".35"/><rect x="465" y="422" width="350" height="114" rx="14" fill="#101621" stroke="#2f3b50"/><circle cx="491" cy="454" r="4" fill="#88e0d0"/><text x="507" y="462" font-family="Segoe UI,Arial,sans-serif" font-size="21" font-weight="600" fill="#edf2fa">Infrastructure &amp; delivery</text><text x="487" y="500" font-family="Segoe UI,Arial,sans-serif" font-size="13.5" fill="#aab7cc">VPS · Forgejo · Command Center</text><circle cx="640" cy="268" r="99" fill="#101621" stroke="#2f3b50"/><circle cx="640" cy="268" r="88" fill="none" stroke="#b4a0ff" stroke-dasharray="3 7" opacity=".5"/><text x="640" y="259" text-anchor="middle" font-family="Georgia,serif" font-size="27" font-style="italic" fill="#edf2fa">Connect the pieces.</text><text x="640" y="291" text-anchor="middle" font-family="Segoe UI,Arial,sans-serif" font-size="12" letter-spacing="2" fill="#aab7cc">RULES · STATE · EXPERIENCE</text><text x="640" y="592" text-anchor="middle" font-family="Segoe UI,Arial,sans-serif" font-size="13" letter-spacing="2" fill="#aab7cc">DIFFERENT TERRAINS. A SHARED ENGINEERING PRACTICE.</text></svg>