<svg xmlns="http://www.w3.org/2000/svg" width="1200" height="420" viewBox="0 0 1200 420" role="img" aria-labelledby="title desc"><title id="title">HectorLayak — Systèmes, produits, mondes.</title><desc id="desc">Editorial diagram linking contracts, state and execution.</desc><rect width="1200" height="420" rx="8" fill="#292722"/><path d="M50 65H1150M50 355H1150" stroke="#635B50"/><g font-family="Segoe UI,Arial,sans-serif"><text x="50" y="43" fill="#C1B6A5" font-size="18" letter-spacing="3">HECTORLAYAK / SOFTWARE ENGINEERING</text><text x="50" y="145" fill="#F1EADF" font-size="58" font-weight="700" letter-spacing="-2">Systèmes, produits, mondes.</text><text x="50" y="190" fill="#C1B6A5" font-size="23">Architecture logicielle · outils de développement · temps réel</text><text x="50" y="389" fill="#C1B6A5" font-size="18" letter-spacing="1">C# / .NET · RUST · TYPESCRIPT · C / C++</text><rect x="50" y="235" width="350" height="85" rx="3" fill="none" stroke="#635B50"/><text x="70" y="260" fill="#C1B6A5" font-size="14">01</text><text x="70" y="298" fill="#F1EADF" font-size="25" letter-spacing="2">CONTRATS</text><path d="M400 279h25m-7-5 7 5-7 5" fill="none" stroke="#C1B6A5" stroke-width="2"/><rect x="425" y="235" width="350" height="85" rx="3" fill="none" stroke="#635B50"/><text x="445" y="260" fill="#C1B6A5" font-size="14">02</text><text x="445" y="298" fill="#F1EADF" font-size="25" letter-spacing="2">ÉTAT</text><path d="M775 279h25m-7-5 7 5-7 5" fill="none" stroke="#C1B6A5" stroke-width="2"/><rect x="800" y="235" width="350" height="85" rx="3" fill="none" stroke="#635B50"/><text x="820" y="260" fill="#C1B6A5" font-size="14">03</text><text x="820" y="298" fill="#F1EADF" font-size="25" letter-spacing="2">EXÉCUTION</text></g></svg>