<svg xmlns="http://www.w3.org/2000/svg" width="1400" height="1000" viewBox="0 0 1400 1000" role="img" aria-labelledby="title desc">
<title id="title">AINDEX</title><desc id="desc">Conceptual mission graph connecting agents, evidence and human review.</desc>
<rect width="1400" height="1000" fill="#171815"/>
<g font-family="Arial, Helvetica, sans-serif">
<path d="M80 72H184" stroke="#C6B0EB" stroke-width="8"/>
<text x="80" y="208" fill="#F4EFE7" font-size="132" font-weight="600" text-anchor="start">AINDEX</text>
<text x="84" y="300" fill="#F4EFE7" font-size="62" font-weight="400" text-anchor="start">Agents work. Humans decide.</text>
<path d="M145 678H330M440 678H590M700 678H850M960 678H1150" fill="none" stroke="#C6B0EB" stroke-width="5" /><path d="M384 625V540Q384 488 440 488H1094Q1200 488 1200 594V625" fill="none" stroke="#92918A" stroke-width="3" /><path d="M645 733V812Q645 858 699 858H902V731" fill="none" stroke="#C6B0EB" stroke-width="3" /><circle cx="145" cy="678" r="24" fill="#C6B0EB" stroke="#C6B0EB" stroke-width="3"/><circle cx="384" cy="678" r="55" fill="#171815" stroke="#C6B0EB" stroke-width="3"/><circle cx="645" cy="678" r="55" fill="#C6B0EB" stroke="#C6B0EB" stroke-width="3"/><circle cx="905" cy="678" r="55" fill="#171815" stroke="#C6B0EB" stroke-width="3"/><circle cx="1200" cy="678" r="55" fill="#171815" stroke="#B95A35" stroke-width="3"/><path d="M359 679l17 17 34-38" fill="none" stroke="#F4EFE7" stroke-width="5" /><path d="M880 679l17 17 34-38" fill="none" stroke="#F4EFE7" stroke-width="5" /><path d="M1180 678h40M1200 658v40" fill="none" stroke="#B95A35" stroke-width="4" /><circle cx="796" cy="858" r="14" fill="#C6B0EB" stroke="#C6B0EB" stroke-width="3"/><text x="314" y="920" fill="#F4EFE7" font-size="60" font-weight="400" text-anchor="start">Mission</text><text x="550" y="560" fill="#C6B0EB" font-size="60" font-weight="400" text-anchor="start">Agents</text><text x="1043" y="816" fill="#F4EFE7" font-size="60" font-weight="400" text-anchor="start">Review</text>
</g></svg>